<?xml version="1.0" encoding="UTF-8" standalone="no"?>
<svg width="342px" height="45px" viewBox="0 0 342 45" version="1.1" xmlns="http://www.w3.org/2000/svg" xmlns:xlink="http://www.w3.org/1999/xlink" xmlns:sketch="http://www.bohemiancoding.com/sketch/ns">
    <!-- Generator: Sketch 3.3.2 (12043) - http://www.bohemiancoding.com/sketch -->
    <title>Artboard 1</title>
    <desc>Created with Sketch.</desc>
    <defs></defs>
    <g id="Page-1" stroke="none" stroke-width="1" fill="none" fill-rule="evenodd" sketch:type="MSPage">
        <g id="Artboard-1" sketch:type="MSArtboardGroup">
            <path d="M269.137334,12.8562745 L257.469883,24.5237255 L252.053608,19.1062745 C251.577334,18.63 250.803608,18.63 250.327334,19.1062745 C249.851059,19.582549 249.851059,20.3562745 250.327334,20.832549 L256.458576,26.9637908 C256.499818,27.022549 256.52485,27.0900654 256.577334,27.142549 C256.823608,27.3888235 257.147334,27.502549 257.469818,27.4937908 C257.792301,27.5013072 258.117334,27.3888235 258.363543,27.142549 C258.416027,27.09 258.441059,27.022549 258.482301,26.9637908 L270.863608,14.582549 C271.339818,14.1062745 271.339818,13.332549 270.863608,12.8562745 C270.386092,12.38 269.613608,12.38 269.137334,12.8562745 L269.137334,12.8562745 Z M260.59485,0 C249.548576,0 240.59485,8.95372549 240.59485,20 C240.59485,31.0462745 249.548576,40 260.59485,40 C271.639818,40 280.59485,31.0462745 280.59485,20 C280.59485,8.95372549 271.641125,0 260.59485,0 L260.59485,0 Z M260.59485,37.5 C250.929818,37.5 243.09485,29.6650327 243.09485,20 C243.09485,10.3349673 250.929818,2.5 260.59485,2.5 C270.259883,2.5 278.09485,10.3349673 278.09485,20 C278.09485,29.6650327 270.259883,37.5 260.59485,37.5 L260.59485,37.5 Z" id="Shape-Copy-5" fill="#000000" sketch:type="MSShapeGroup"></path>
            <path d="M235.56893,0 L215.595811,0 C213.931811,0 212.569891,1.36063998 212.569891,3.02591995 L212.569891,41.7727993 C212.569891,43.4380793 213.931811,44.7999992 215.595811,44.7999992 L235.56893,44.7999992 C237.23293,44.7999992 238.59485,43.4406393 238.59485,41.7740793 L238.59485,3.02591995 C238.59485,1.36063998 237.23293,0 235.56893,0 L235.56893,0 Z M222.387491,2.18111996 L228.77725,2.18111996 C228.97949,2.18111996 229.14333,2.34495996 229.14333,2.54847996 C229.14333,2.75071995 228.97949,2.91455995 228.77725,2.91455995 L222.387491,2.91455995 C222.185251,2.91455995 222.021411,2.75071995 222.021411,2.54847996 C222.021411,2.34495996 222.185251,2.18111996 222.387491,2.18111996 L222.387491,2.18111996 Z M225.58237,43.2870393 C224.74653,43.2870393 224.06941,42.6099193 224.06941,41.7727993 C224.06941,40.9356793 224.74653,40.2598393 225.58237,40.2598393 C226.41821,40.2598393 227.09533,40.9356793 227.09533,41.7727993 C227.09533,42.6099193 226.41821,43.2870393 225.58237,43.2870393 L225.58237,43.2870393 Z M236.48925,39.1999993 L214.675491,39.1999993 L214.675491,4.79871992 L236.48925,4.79871992 L236.48925,39.1999993 L236.48925,39.1999993 Z" id="Shape-Copy-6" fill="#000000" sketch:type="MSShapeGroup"></path>
            <path d="M21.57037,0 L20.7407838,0 L3.31851846,0 C1.49328993,0 3.55271368e-14,1.49328993 3.55271368e-14,3.31851846 L3.55271368e-14,41.4814808 C3.55271368e-14,43.3066225 1.49328993,44.7999992 3.31851846,44.7999992 L28.2074069,44.7999992 C30.0325487,44.7999992 31.5259254,43.3066225 31.5259254,41.4814808 L31.5259254,12.4444876 L31.5259254,11.6149014 L21.57037,0 L21.57037,0 Z M21.57037,2.48893223 L29.3689318,11.6149014 L23.2296292,11.6149014 C22.400043,11.6149014 21.57037,10.7853151 21.57037,9.95564214 L21.57037,2.48893223 L21.57037,2.48893223 Z M29.8666662,41.4814808 C29.8666662,42.311067 29.2029625,43.14074 28.2074069,43.14074 L3.31851846,43.14074 C2.48893223,43.14074 1.65925923,42.4770363 1.65925923,41.4814808 L1.65925923,3.31851846 C1.65925923,2.48893223 2.32296292,1.65925923 3.31851846,1.65925923 L19.9111108,1.65925923 L19.9111108,9.95555539 C19.9111108,11.7807839 21.4044875,13.2740738 23.2296292,13.2740738 L29.8666662,13.2740738 L29.8666662,41.4814808 L29.8666662,41.4814808 Z M4.97777769,21.57037 L26.5481477,21.57037 L26.5481477,23.2296292 L4.97777769,23.2296292 L4.97777769,21.57037 Z M4.97777769,16.5925923 L26.5481477,16.5925923 L26.5481477,18.2518515 L4.97777769,18.2518515 L4.97777769,16.5925923 Z M4.97777769,26.5481477 L26.5481477,26.5481477 L26.5481477,28.2074069 L4.97777769,28.2074069 L4.97777769,26.5481477 Z M4.97777769,6.63703692 L16.5925923,6.63703692 L16.5925923,8.29629616 L4.97777769,8.29629616 L4.97777769,6.63703692 Z M4.97777769,31.5259254 L26.5481477,31.5259254 L26.5481477,33.1851846 L4.97777769,33.1851846 L4.97777769,31.5259254 Z M4.97777769,11.6148146 L16.5925923,11.6148146 L16.5925923,13.2740738 L4.97777769,13.2740738 L4.97777769,11.6148146 Z M4.97777769,36.5037031 L26.5481477,36.5037031 L26.5481477,38.1629623 L4.97777769,38.1629623 L4.97777769,36.5037031 Z" id="Shape-Copy-2" fill="#000000" sketch:type="MSShapeGroup" transform="translate(15.762963, 22.400000) scale(-1, 1) translate(-15.762963, -22.400000) "></path>
            <path d="M179.392815,13.6442003 C178.821305,12.8387172 177.858397,12.3766599 176.750879,12.3766599 L172.535559,12.3766599 L172.535559,7.7924552 C172.535559,6.02579589 171.098297,4.58853429 169.331638,4.58853429 L154.555154,4.58853429 C153.926493,4.58853429 152.945401,4.09045448 152.574612,3.58302268 L151.468653,2.07025246 C150.605846,0.890170457 148.852868,0 147.390841,0 L142.270629,0 C140.661222,0 139.042635,1.14440591 138.505935,2.6621985 L138.15385,3.65835812 C137.987939,4.12768924 137.336244,4.58853429 136.838338,4.58853429 L135.303227,4.58853429 C133.536567,4.58853429 132.099306,6.02579589 132.099306,7.7924552 L132.099306,36.7264588 C132.099306,36.8797274 132.127189,37.0260687 132.176027,37.1627116 C132.202351,37.7352609 132.380385,38.2752514 132.70476,38.7324596 C133.27627,39.5381158 134.239179,40 135.346696,40 L167.989628,40 C169.96307,40 172.019641,38.5410903 172.671682,36.6784865 L179.716325,16.5564778 C180.082091,15.5113068 179.964325,14.4498565 179.392815,13.6442003 L179.392815,13.6442003 Z M135.303227,7.186308 L136.838338,7.186308 C138.448092,7.186308 140.066505,6.04190209 140.603031,4.5241095 L140.954943,3.52829625 C141.121028,3.05879195 141.772722,2.59794689 142.270629,2.59794689 L147.390668,2.59794689 C148.019329,2.59794689 149.000422,3.09602671 149.371384,3.6034585 L150.477342,5.11605554 C151.34015,6.29631073 153.093127,7.186308 154.555154,7.186308 L169.331638,7.186308 C169.660343,7.186308 169.937785,7.46392342 169.937785,7.7924552 L169.937785,12.3766599 L144.107948,12.3766599 C142.134506,12.3766599 140.077935,13.8355696 139.425894,15.6981733 L134.69708,29.2053843 L134.69708,7.7924552 C134.69708,7.46392342 134.974695,7.186308 135.303227,7.186308 L135.303227,7.186308 Z M177.264373,15.6981733 L170.21973,35.8201821 C169.929818,36.6481792 168.866809,37.4022263 167.989628,37.4022263 L135.346696,37.4022263 C135.095924,37.4022263 134.900399,37.3376283 134.823678,37.2293877 C134.746957,37.1211472 134.75042,36.9152303 134.833376,36.6784865 L141.878019,16.5564778 C142.16793,15.7284807 143.230939,14.9744336 144.108121,14.9744336 L176.751053,14.9744336 C177.001824,14.9744336 177.19735,15.0390315 177.274244,15.1472721 C177.350792,15.2555127 177.347328,15.4614296 177.264373,15.6981733 L177.264373,15.6981733 Z" id="Shape-Copy-3" fill="#000002" sketch:type="MSShapeGroup"></path>
            <path d="M196.284945,0 C188.408249,0 182,6.40816377 182,14.2848597 C182,17.4501112 183.863514,22.263876 187.864624,29.4339195 C190.594908,34.3262868 193.312604,38.4586581 193.427254,38.6327311 L195.391548,41.6101242 C195.589595,41.9104065 195.925155,42.0910726 196.284945,42.0910726 C196.644736,42.0910726 196.980295,41.9104065 197.178343,41.6101242 L199.142551,38.6329023 C199.256088,38.4607987 201.954005,34.3641325 204.705266,29.4339195 C208.706376,22.2642185 210.569891,17.4504537 210.569891,14.2848597 C210.569891,6.40816377 204.161641,0 196.284945,0 L196.284945,0 Z M202.836101,28.3907659 C200.123114,33.2520518 197.467837,37.2844146 197.355927,37.4538639 L196.284945,39.0772037 L195.214307,37.454292 C195.101797,37.2834727 192.426142,33.2149767 189.73379,28.3907659 C186.02243,21.7398589 184.140593,16.9939081 184.140593,14.2848597 C184.140593,7.58848655 189.588487,2.14059265 196.284945,2.14059265 C202.981404,2.14059265 208.429298,7.58848655 208.429298,14.2848597 C208.429298,16.9942506 206.54746,21.7400302 202.836101,28.3907659 L202.836101,28.3907659 Z M196.284945,6.27544702 C191.917708,6.27544702 188.364753,9.82848832 188.364753,14.1956398 C188.364753,18.5627913 191.917708,22.1158326 196.284945,22.1158326 C200.652182,22.1158326 204.205138,18.5627913 204.205138,14.1956398 C204.205138,9.82848832 200.652182,6.27544702 196.284945,6.27544702 L196.284945,6.27544702 Z M196.284945,19.97524 C193.098031,19.97524 190.505345,17.3825541 190.505345,14.1956398 C190.505345,11.0087255 193.098031,8.41603967 196.284945,8.41603967 C199.471945,8.41603967 202.064545,11.0087255 202.064545,14.1956398 C202.064545,17.3825541 199.471945,19.97524 196.284945,19.97524 L196.284945,19.97524 Z" id="Shape-Copy-4" fill="#000000" sketch:type="MSShapeGroup"></path>
            <path d="M118.008893,26.6336836 C120.617195,23.8100148 122.244438,20.0291044 122.244438,15.8653479 C122.244438,7.13100303 115.137337,0 106.37909,0 C97.6208441,0 90.5137426,7.13100303 90.5137426,15.8653479 C90.5137426,24.5996928 97.6208441,31.7306958 106.37909,31.7306958 C109.944634,31.7306958 113.222938,30.5581718 115.879127,28.571984 L127.676409,40.3692658 C127.963565,40.6564214 128.322509,40.7999992 128.681454,40.7999992 C129.040398,40.7999992 129.423244,40.6564214 129.686498,40.3692658 C130.236908,39.8188561 130.236908,38.9095862 129.686498,38.335275 L118.008893,26.6336836 L118.008893,26.6336836 Z M93.3852987,15.8653479 C93.3852987,8.71035893 99.2002,2.87155618 106.37909,2.87155618 C113.534079,2.87155618 119.372882,8.68645744 119.372882,15.8653479 C119.372882,23.0442383 113.557981,28.8591396 106.37909,28.8591396 C99.2002,28.8591396 93.3852987,23.0203369 93.3852987,15.8653479 L93.3852987,15.8653479 Z" id="Shape-Copy-8" fill="#000000" sketch:type="MSShapeGroup"></path>
            <path d="M87.6779886,-3.55271368e-15 L35.2827164,-3.55271368e-15 C34.6670162,-3.55271368e-15 34.1679234,0.499204316 34.1679234,1.11479302 L34.1679234,38.885207 C34.1679234,39.5009072 34.6670162,40 35.2827164,40 L87.6779886,40 C88.2935773,40 88.7927816,39.5009072 88.7927816,38.885207 L88.7927816,1.11479302 C88.7927816,0.499092837 88.2935773,-3.55271368e-15 87.6779886,-3.55271368e-15 L87.6779886,-3.55271368e-15 Z M86.5631956,2.22958605 L86.5631956,9.21108885 L36.3975095,9.21108885 L36.3975095,2.22958605 L86.5631956,2.22958605 L86.5631956,2.22958605 Z M36.3975095,37.7703025 L36.3975095,11.4406749 L86.5631956,11.4406749 L86.5631956,37.770414 L36.3975095,37.770414 L36.3975095,37.7703025 Z M57.408571,31.5149759 L53.1163949,31.5149759 C52.5008062,31.5149759 52.0016019,32.0141802 52.0016019,32.6297689 C52.0016019,33.2453576 52.5008062,33.7445619 53.1163949,33.7445619 L57.408571,33.7445619 C58.0241597,33.7445619 58.523364,33.2453576 58.523364,32.6297689 C58.523364,32.0141802 58.0241597,31.5149759 57.408571,31.5149759 L57.408571,31.5149759 Z M69.5146658,31.5149759 L62.1406444,31.5149759 C61.5249442,31.5149759 61.0258514,32.0141802 61.0258514,32.6297689 C61.0258514,33.2453576 61.5249442,33.7445619 62.1406444,33.7445619 L69.5146658,33.7445619 C70.1302545,33.7445619 70.6294589,33.2453576 70.6294589,32.6297689 C70.6294589,32.0141802 70.130366,31.5149759 69.5146658,31.5149759 Z M81.290559,31.5149759 L73.03652,31.5149759 C72.4209313,31.5149759 71.9217269,32.0141802 71.9217269,32.6297689 C71.9217269,33.2453576 72.4209313,33.7445619 73.03652,33.7445619 L81.290559,33.7445619 C81.9061477,33.7445619 82.405352,33.2453576 82.405352,32.6297689 C82.405352,32.0141802 81.9062592,31.5149759 81.290559,31.5149759 Z M45.8524035,31.5149759 L41.670146,31.5149759 C41.0545573,31.5149759 40.555353,32.0141802 40.555353,32.6297689 C40.555353,33.2453576 41.0545573,33.7445619 41.670146,33.7445619 L45.8524035,33.7445619 C46.4679922,33.7445619 46.9671966,33.2453576 46.9671966,32.6297689 C46.9671966,32.0141802 46.4679922,31.5149759 45.8524035,31.5149759 Z M81.290559,26.1219416 L53.1163949,26.1219416 C52.5008062,26.1219416 52.0016019,26.621146 52.0016019,27.2367347 C52.0016019,27.8523234 52.5008062,28.3515277 53.1163949,28.3515277 L81.2906705,28.3515277 C81.9062592,28.3515277 82.4054635,27.8523234 82.4054635,27.2367347 C82.4054635,26.621146 81.9062592,26.1219416 81.290559,26.1219416 Z M45.8524035,26.1219416 L41.670146,26.1219416 C41.0545573,26.1219416 40.555353,26.621146 40.555353,27.2367347 C40.555353,27.8523234 41.0545573,28.3515277 41.670146,28.3515277 L45.8524035,28.3515277 C46.4679922,28.3515277 46.9671966,27.8523234 46.9671966,27.2367347 C46.9671966,26.621146 46.4679922,26.1219416 45.8524035,26.1219416 Z M53.1163949,22.9588279 L57.408571,22.9588279 C58.0241597,22.9588279 58.523364,22.4597351 58.523364,21.8440349 C58.523364,21.2283347 58.0241597,20.7292419 57.408571,20.7292419 L53.1163949,20.7292419 C52.5008062,20.7292419 52.0016019,21.2283347 52.0016019,21.8440349 C52.0016019,22.4597351 52.5006947,22.9588279 53.1163949,22.9588279 Z M69.5146658,22.9588279 C70.1302545,22.9588279 70.6294589,22.4597351 70.6294589,21.8440349 C70.6294589,21.2283347 70.1302545,20.7292419 69.5146658,20.7292419 L62.1406444,20.7292419 C61.5249442,20.7292419 61.0258514,21.2283347 61.0258514,21.8440349 C61.0258514,22.4597351 61.5249442,22.9588279 62.1406444,22.9588279 L69.5146658,22.9588279 Z M81.290559,20.7292419 L73.03652,20.7292419 C72.4209313,20.7292419 71.9217269,21.2283347 71.9217269,21.8440349 C71.9217269,22.4597351 72.4209313,22.9588279 73.03652,22.9588279 L81.290559,22.9588279 C81.9061477,22.9588279 82.405352,22.4597351 82.405352,21.8440349 C82.405352,21.2283347 81.9062592,20.7292419 81.290559,20.7292419 Z M45.8524035,20.7292419 L41.670146,20.7292419 C41.0545573,20.7292419 40.555353,21.2283347 40.555353,21.8440349 C40.555353,22.4597351 41.0545573,22.9588279 41.670146,22.9588279 L45.8524035,22.9588279 C46.4679922,22.9588279 46.9671966,22.4597351 46.9671966,21.8440349 C46.9671966,21.2283347 46.4679922,20.7292419 45.8524035,20.7292419 Z M81.290559,15.3363191 L53.1163949,15.3363191 C52.5008062,15.3363191 52.0016019,15.835412 52.0016019,16.4511121 C52.0016019,17.0667009 52.5008062,17.5659052 53.1163949,17.5659052 L81.2906705,17.5659052 C81.9062592,17.5659052 82.4054635,17.0667009 82.4054635,16.4511121 C82.405352,15.8355234 81.9062592,15.3363191 81.290559,15.3363191 Z M45.8524035,15.3363191 L41.670146,15.3363191 C41.0545573,15.3363191 40.555353,15.835412 40.555353,16.4511121 C40.555353,17.0667009 41.0545573,17.5659052 41.670146,17.5659052 L45.8524035,17.5659052 C46.4679922,17.5659052 46.9671966,17.0667009 46.9671966,16.4511121 C46.9671966,15.8355234 46.4679922,15.3363191 45.8524035,15.3363191 Z M51.3550219,6.83513047 L52.0154253,6.83513047 C52.631014,6.83513047 53.1302183,6.33592616 53.1302183,5.72033745 C53.1302183,5.10474874 52.631014,4.60554442 52.0154253,4.60554442 L51.3550219,4.60554442 C50.7394332,4.60554442 50.2402289,5.10474874 50.2402289,5.72033745 C50.2402289,6.33592616 50.7393217,6.83513047 51.3550219,6.83513047 Z M46.5128069,6.83513047 L47.1727644,6.83513047 C47.7883531,6.83513047 48.2875574,6.33592616 48.2875574,5.72033745 C48.2875574,5.10474874 47.7883531,4.60554442 47.1727644,4.60554442 L46.5128069,4.60554442 C45.8972182,4.60554442 45.3980139,5.10474874 45.3980139,5.72033745 C45.3980139,6.33592616 45.8972182,6.83513047 46.5128069,6.83513047 Z M41.6698116,6.83513047 L42.3308838,6.83513047 C42.946584,6.83513047 43.4456769,6.33592616 43.4456769,5.72033745 C43.4456769,5.10474874 42.946584,4.60554442 42.3308838,4.60554442 L41.6698116,4.60554442 C41.0542229,4.60554442 40.5550186,5.10474874 40.5550186,5.72033745 C40.5550186,6.33592616 41.0541114,6.83513047 41.6698116,6.83513047 Z" id="Shape-Copy" fill="#000000" sketch:type="MSShapeGroup"></path>
            <path d="M283.140401,0 C283.140401,0 280.512,15 298,15" id="Path-38-Copy" stroke="#758A92" opacity="0.2" sketch:type="MSShapeGroup"></path>
            <path d="M298.140401,0 C298.140401,0 295.512,15 313,15" id="Path-38-Copy-3" stroke="#758A92" opacity="0.2" sketch:type="MSShapeGroup" transform="translate(305.500000, 7.500000) scale(-1, 1) translate(-305.500000, -7.500000) "></path>
            <path d="M283.140401,18 C283.140401,18 280.512,33 298,33" id="Path-38-Copy-2" stroke="#758A92" opacity="0.2" sketch:type="MSShapeGroup" transform="translate(290.500000, 25.500000) rotate(-180.000000) translate(-290.500000, -25.500000) "></path>
            <path d="M299.140401,18 C299.140401,18 296.512,33 314,33" id="Path-38-Copy-4" stroke="#758A92" opacity="0.2" sketch:type="MSShapeGroup" transform="translate(306.500000, 25.500000) rotate(-270.000000) translate(-306.500000, -25.500000) "></path>
        </g>
    </g>
</svg>